<svg id="visual" viewBox="0 0 900 600" width="900" height="600" xmlns="http://www.w3.org/2000/svg" xmlns:xlink="http://www.w3.org/1999/xlink" version="1.1"><rect width="900" height="600" fill="#1C0522"></rect><g><g transform="translate(724 425)"><path d="M54.1 -16.3C62.3 7.9 56 38.1 36.8 52.5C17.6 66.9 -14.4 65.4 -35.9 49.7C-57.3 34.1 -68.2 4.2 -60.4 -19.3C-52.7 -42.8 -26.3 -60 -1.7 -59.4C22.9 -58.8 45.8 -40.6 54.1 -16.3Z" stroke="#F7760E" fill="none" stroke-width="6"></path></g><g transform="translate(345 208)"><path d="M15.3 -5.8C17.3 1.2 14.7 9 9.1 13.2C3.4 17.5 -5.3 18.4 -10.5 14.5C-15.7 10.7 -17.5 2.2 -15.1 -5.2C-12.8 -12.6 -6.4 -19 0.1 -19.1C6.7 -19.1 13.3 -12.8 15.3 -5.8Z" stroke="#F7760E" fill="none" stroke-width="6"></path></g><g transform="translate(478 403)"><path d="M54.9 -18.6C60.7 0 47.8 24 27.8 38.6C7.9 53.2 -19.2 58.4 -36.5 46.7C-53.9 34.9 -61.5 6.2 -53.8 -15C-46.1 -36.2 -23 -49.9 0.8 -50.2C24.6 -50.4 49.1 -37.2 54.9 -18.6Z" stroke="#F7760E" fill="none" stroke-width="6"></path></g><g transform="translate(45 548)"><path d="M16.2 -6.4C18.2 1.1 15.4 9.2 9.6 13.4C3.8 17.6 -4.9 18.1 -10.7 14.1C-16.5 10 -19.5 1.3 -17.2 -6.4C-15 -14.2 -7.5 -21.1 -0.2 -21C7 -20.9 14.1 -13.9 16.2 -6.4Z" stroke="#F7760E" fill="none" stroke-width="6"></path></g><g transform="translate(512 36)"><path d="M49.4 -16.6C55.3 2.2 45.4 25.5 28 38C10.6 50.5 -14.3 52.3 -31.2 40.6C-48.1 28.8 -57 3.7 -50.4 -15.9C-43.9 -35.5 -22 -49.7 -0.1 -49.6C21.7 -49.6 43.4 -35.4 49.4 -16.6Z" stroke="#F7760E" fill="none" stroke-width="6"></path></g><g transform="translate(358 547)"><path d="M55.4 -18.9C62.8 4.6 53.4 32.6 33.2 47.7C13.1 62.7 -17.8 64.9 -35.6 51.4C-53.4 38 -58 8.8 -49.9 -15.7C-41.8 -40.3 -20.9 -60.2 1.6 -60.8C24 -61.3 48.1 -42.4 55.4 -18.9Z" stroke="#F7760E" fill="none" stroke-width="6"></path></g></g></svg>