<svg id="visual" viewBox="0 0 900 600" width="900" height="600" xmlns="http://www.w3.org/2000/svg" xmlns:xlink="http://www.w3.org/1999/xlink" version="1.1"><rect x="0" y="0" width="900" height="600" fill="#1C0522"></rect><defs><linearGradient id="grad1_0" x1="33.3%" y1="100%" x2="100%" y2="0%"><stop offset="20%" stop-color="#fbae3c" stop-opacity="1"></stop><stop offset="80%" stop-color="#fbae3c" stop-opacity="1"></stop></linearGradient></defs><defs><linearGradient id="grad1_1" x1="33.3%" y1="100%" x2="100%" y2="0%"><stop offset="20%" stop-color="#fbae3c" stop-opacity="1"></stop><stop offset="80%" stop-color="#e98244" stop-opacity="1"></stop></linearGradient></defs><defs><linearGradient id="grad1_2" x1="33.3%" y1="100%" x2="100%" y2="0%"><stop offset="20%" stop-color="#ca5b4b" stop-opacity="1"></stop><stop offset="80%" stop-color="#e98244" stop-opacity="1"></stop></linearGradient></defs><defs><linearGradient id="grad1_3" x1="33.3%" y1="100%" x2="100%" y2="0%"><stop offset="20%" stop-color="#ca5b4b" stop-opacity="1"></stop><stop offset="80%" stop-color="#a23d4d" stop-opacity="1"></stop></linearGradient></defs><defs><linearGradient id="grad1_4" x1="33.3%" y1="100%" x2="100%" y2="0%"><stop offset="20%" stop-color="#732747" stop-opacity="1"></stop><stop offset="80%" stop-color="#a23d4d" stop-opacity="1"></stop></linearGradient></defs><defs><linearGradient id="grad1_5" x1="33.3%" y1="100%" x2="100%" y2="0%"><stop offset="20%" stop-color="#732747" stop-opacity="1"></stop><stop offset="80%" stop-color="#451738" stop-opacity="1"></stop></linearGradient></defs><defs><linearGradient id="grad1_6" x1="33.3%" y1="100%" x2="100%" y2="0%"><stop offset="20%" stop-color="#1c0522" stop-opacity="1"></stop><stop offset="80%" stop-color="#451738" stop-opacity="1"></stop></linearGradient></defs><defs><linearGradient id="grad2_0" x1="0%" y1="100%" x2="66.7%" y2="0%"><stop offset="20%" stop-color="#fbae3c" stop-opacity="1"></stop><stop offset="80%" stop-color="#fbae3c" stop-opacity="1"></stop></linearGradient></defs><defs><linearGradient id="grad2_1" x1="0%" y1="100%" x2="66.7%" y2="0%"><stop offset="20%" stop-color="#e98244" stop-opacity="1"></stop><stop offset="80%" stop-color="#fbae3c" stop-opacity="1"></stop></linearGradient></defs><defs><linearGradient id="grad2_2" x1="0%" y1="100%" x2="66.7%" y2="0%"><stop offset="20%" stop-color="#e98244" stop-opacity="1"></stop><stop offset="80%" stop-color="#ca5b4b" stop-opacity="1"></stop></linearGradient></defs><defs><linearGradient id="grad2_3" x1="0%" y1="100%" x2="66.7%" y2="0%"><stop offset="20%" stop-color="#a23d4d" stop-opacity="1"></stop><stop offset="80%" stop-color="#ca5b4b" stop-opacity="1"></stop></linearGradient></defs><defs><linearGradient id="grad2_4" x1="0%" y1="100%" x2="66.7%" y2="0%"><stop offset="20%" stop-color="#a23d4d" stop-opacity="1"></stop><stop offset="80%" stop-color="#732747" stop-opacity="1"></stop></linearGradient></defs><defs><linearGradient id="grad2_5" x1="0%" y1="100%" x2="66.7%" y2="0%"><stop offset="20%" stop-color="#451738" stop-opacity="1"></stop><stop offset="80%" stop-color="#732747" stop-opacity="1"></stop></linearGradient></defs><defs><linearGradient id="grad2_6" x1="0%" y1="100%" x2="66.7%" y2="0%"><stop offset="20%" stop-color="#451738" stop-opacity="1"></stop><stop offset="80%" stop-color="#1c0522" stop-opacity="1"></stop></linearGradient></defs><g transform="translate(900, 600)"><path d="M-486.7 0C-478 -50.8 -469.3 -101.5 -447 -145.2C-424.7 -188.9 -388.7 -225.6 -355.2 -258C-321.7 -290.5 -290.6 -318.7 -258.6 -356C-226.6 -393.3 -193.7 -439.6 -150.4 -462.9C-107.1 -486.2 -53.6 -486.5 0 -486.7L0 0Z" fill="#2f102e"></path><path d="M-417.2 0C-409.8 -43.5 -402.3 -87 -383.1 -124.5C-364 -162 -333.1 -193.4 -304.4 -221.2C-275.7 -249 -249.1 -273.2 -221.7 -305.1C-194.3 -337.1 -166 -376.8 -128.9 -396.8C-91.8 -416.8 -45.9 -417 0 -417.2L0 0Z" fill="#5c1f41"></path><path d="M-347.7 0C-341.5 -36.3 -335.2 -72.5 -319.3 -103.7C-303.3 -135 -277.6 -161.1 -253.7 -184.3C-229.8 -207.5 -207.6 -227.6 -184.7 -254.3C-161.9 -280.9 -138.3 -314 -107.4 -330.7C-76.5 -347.3 -38.3 -347.5 0 -347.7L0 0Z" fill="#8b314b"></path><path d="M-278.1 0C-273.2 -29 -268.2 -58 -255.4 -83C-242.7 -108 -222.1 -128.9 -202.9 -147.5C-183.8 -166 -166.1 -182.1 -147.8 -203.4C-129.5 -224.7 -110.7 -251.2 -86 -264.5C-61.2 -277.8 -30.6 -278 0 -278.1L0 0Z" fill="#b74b4d"></path><path d="M-208.6 0C-204.9 -21.8 -201.1 -43.5 -191.6 -62.2C-182 -81 -166.6 -96.7 -152.2 -110.6C-137.9 -124.5 -124.6 -136.6 -110.8 -152.6C-97.1 -168.5 -83 -188.4 -64.5 -198.4C-45.9 -208.4 -23 -208.5 0 -208.6L0 0Z" fill="#db6e48"></path><path d="M-139.1 0C-136.6 -14.5 -134.1 -29 -127.7 -41.5C-121.3 -54 -111 -64.5 -101.5 -73.7C-91.9 -83 -83 -91.1 -73.9 -101.7C-64.8 -112.4 -55.3 -125.6 -43 -132.3C-30.6 -138.9 -15.3 -139 0 -139.1L0 0Z" fill="#f49740"></path><path d="M-69.5 0C-68.3 -7.3 -67 -14.5 -63.9 -20.7C-60.7 -27 -55.5 -32.2 -50.7 -36.9C-46 -41.5 -41.5 -45.5 -36.9 -50.9C-32.4 -56.2 -27.7 -62.8 -21.5 -66.1C-15.3 -69.5 -7.7 -69.5 0 -69.5L0 0Z" fill="#fbae3c"></path></g><g transform="translate(0, 0)"><path d="M486.7 0C455.8 44 424.9 88 404.2 131.3C383.5 174.7 373 217.4 351.9 255.7C330.8 294 299.1 327.8 265.1 364.9C231.1 401.9 195 442.1 150.4 462.9C105.9 483.8 52.9 485.3 0 486.7L0 0Z" fill="#2f102e"></path><path d="M417.2 0C390.7 37.7 364.2 75.4 346.5 112.6C328.7 149.7 319.7 186.3 301.6 219.2C283.6 252 256.3 281 227.2 312.7C198.1 344.5 167.1 378.9 128.9 396.8C90.7 414.7 45.4 415.9 0 417.2L0 0Z" fill="#5c1f41"></path><path d="M347.7 0C325.6 31.4 303.5 62.8 288.7 93.8C273.9 124.8 266.5 155.3 251.4 182.6C236.3 210 213.6 234.2 189.4 260.6C165.1 287.1 139.3 315.8 107.4 330.7C75.6 345.5 37.8 346.6 0 347.7L0 0Z" fill="#8b314b"></path><path d="M278.1 0C260.5 25.1 242.8 50.3 231 75C219.1 99.8 213.2 124.2 201.1 146.1C189 168 170.9 187.3 151.5 208.5C132.1 229.7 111.4 252.6 86 264.5C60.5 276.4 30.2 277.3 0 278.1L0 0Z" fill="#b74b4d"></path><path d="M208.6 0C195.4 18.9 182.1 37.7 173.2 56.3C164.4 74.9 159.9 93.2 150.8 109.6C141.8 126 128.2 140.5 113.6 156.4C99.1 172.2 83.6 189.5 64.5 198.4C45.4 207.3 22.7 208 0 208.6L0 0Z" fill="#db6e48"></path><path d="M139.1 0C130.2 12.6 121.4 25.1 115.5 37.5C109.6 49.9 106.6 62.1 100.5 73.1C94.5 84 85.4 93.7 75.7 104.2C66 114.8 55.7 126.3 43 132.3C30.2 138.2 15.1 138.6 0 139.1L0 0Z" fill="#f49740"></path><path d="M69.5 0C65.1 6.3 60.7 12.6 57.7 18.8C54.8 25 53.3 31.1 50.3 36.5C47.3 42 42.7 46.8 37.9 52.1C33 57.4 27.9 63.2 21.5 66.1C15.1 69.1 7.6 69.3 0 69.5L0 0Z" fill="#fbae3c"></path></g></svg>